<?xml version="1.0" encoding="utf-8"?>
<!-- Generator: Adobe Illustrator 16.0.0, SVG Export Plug-In . SVG Version: 6.00 Build 0)  -->
<!DOCTYPE svg PUBLIC "-//W3C//DTD SVG 1.1//EN" "http://www.w3.org/Graphics/SVG/1.1/DTD/svg11.dtd">
<svg version="1.1" id="Layer_1" xmlns="http://www.w3.org/2000/svg" xmlns:xlink="http://www.w3.org/1999/xlink" x="0px" y="0px"
	 width="419px" height="368px" viewBox="0 0 419 368" enable-background="new 0 0 419 368" xml:space="preserve">
<g id="Black">
<rect width="419" height="368"/>
<g id="Color">
	<rect x="273" y="40" fill="#FFFFFF" width="20" height="7"/>
	<rect x="273" y="24" fill="#FFFFFF" width="20" height="7"/>
	<rect x="273" y="32" fill="#FFFFFF" width="20" height="7"/>
	<rect x="273" y="48" fill="#FFFFFF" width="20" height="7"/>
	<rect x="273" y="56" fill="#FFFFFF" width="20" height="7"/>
	<rect x="252" y="337" fill="#FFFFFF" width="20" height="7"/>
	<rect x="273" y="64" fill="#FFFFFF" width="20" height="7"/>
	<rect x="252" fill="#FFFFFF" width="20" height="7"/>
	<rect x="273" y="160" fill="#FFFFFF" width="20" height="7"/>
	<rect x="273" y="8" fill="#FFFFFF" width="20" height="7"/>
	<rect x="273" y="353" fill="#FFFFFF" width="20" height="7"/>
	<rect x="273" y="88" fill="#FFFFFF" width="20" height="7"/>
	<rect x="273" y="128" fill="#FFFFFF" width="20" height="7"/>
	<rect x="273" y="136" fill="#FFFFFF" width="20" height="7"/>
	<rect x="273" y="144" fill="#FFFFFF" width="20" height="7"/>
	<rect x="273" y="120" fill="#FFFFFF" width="20" height="7"/>
	<rect x="273" y="152" fill="#FFFFFF" width="20" height="7"/>
	<rect x="252" y="345" fill="#FFFFFF" width="20" height="7"/>
	<rect x="273" y="72" fill="#FFFFFF" width="20" height="7"/>
	<rect x="273" y="112" fill="#FFFFFF" width="20" height="7"/>
	<rect x="273" y="80" fill="#FFFFFF" width="20" height="7"/>
	<rect x="273" y="96" fill="#FFFFFF" width="20" height="7"/>
	<rect x="273" y="104" fill="#FFFFFF" width="20" height="7"/>
	<rect x="273" y="16" fill="#FFFFFF" width="20" height="7"/>
	<rect x="252" y="201" fill="#FFFFFF" width="20" height="7"/>
	<rect x="252" y="209" fill="#FFFFFF" width="20" height="7"/>
	<rect x="252" y="190" fill="#FFFFFF" width="20" height="10"/>
	<rect x="252" y="225" fill="#FFFFFF" width="20" height="7"/>
	<rect x="252" y="136" fill="#FFFFFF" width="20" height="7"/>
	<rect x="252" y="152" fill="#FFFFFF" width="20" height="7"/>
	<rect x="252" y="329" fill="#FFFFFF" width="20" height="7"/>
	<rect x="252" y="144" fill="#FFFFFF" width="20" height="7"/>
	<rect x="252" y="179" fill="#FFFFFF" width="20" height="10"/>
	<rect x="252" y="160" fill="#FFFFFF" width="20" height="7"/>
	<rect x="252" y="168" fill="#FFFFFF" width="20" height="10"/>
	<rect x="252" y="233" fill="#FFFFFF" width="20" height="7"/>
	<rect x="252" y="297" fill="#FFFFFF" width="20" height="7"/>
	<rect x="252" y="305" fill="#FFFFFF" width="20" height="7"/>
	<rect x="252" y="313" fill="#FFFFFF" width="20" height="7"/>
	<rect x="252" y="321" fill="#FFFFFF" width="20" height="7"/>
	<rect x="252" y="289" fill="#FFFFFF" width="20" height="7"/>
	<rect x="252" y="273" fill="#FFFFFF" width="20" height="7"/>
	<rect x="252" y="249" fill="#FFFFFF" width="20" height="7"/>
	<rect x="252" y="257" fill="#FFFFFF" width="20" height="7"/>
	<rect x="252" y="241" fill="#FFFFFF" width="20" height="7"/>
	<rect x="252" y="265" fill="#FFFFFF" width="20" height="7"/>
	<rect x="252" y="281" fill="#FFFFFF" width="20" height="7"/>
	<rect x="252" y="217" fill="#FFFFFF" width="20" height="7"/>
	<rect x="294" y="80" fill="#FFFFFF" width="20" height="7"/>
	<rect x="273" y="168" fill="#FFFFFF" width="20" height="10"/>
	<rect x="294" y="64" fill="#FFFFFF" width="20" height="7"/>
	<rect x="294" y="88" fill="#FFFFFF" width="20" height="7"/>
	<rect x="294" y="96" fill="#FFFFFF" width="20" height="7"/>
	<rect x="294" y="104" fill="#FFFFFF" width="20" height="7"/>
	<rect x="294" y="8" fill="#FFFFFF" width="20" height="7"/>
	<rect x="294" y="48" fill="#FFFFFF" width="20" height="7"/>
	<rect x="294" y="16" fill="#FFFFFF" width="20" height="7"/>
	<rect x="294" y="24" fill="#FFFFFF" width="20" height="7"/>
	<rect x="294" y="40" fill="#FFFFFF" width="20" height="7"/>
	<rect x="294" y="32" fill="#FFFFFF" width="20" height="7"/>
	<rect x="294" y="56" fill="#FFFFFF" width="20" height="7"/>
	<rect x="294" y="179" fill="#FFFFFF" width="20" height="10"/>
	<rect x="294" y="168" fill="#FFFFFF" width="20" height="10"/>
	<rect x="294" y="112" fill="#FFFFFF" width="20" height="7"/>
	<rect x="294" y="190" fill="#FFFFFF" width="20" height="10"/>
	<rect x="294" y="201" fill="#FFFFFF" width="20" height="7"/>
	<rect x="294" y="160" fill="#FFFFFF" width="20" height="7"/>
	<rect x="294" y="120" fill="#FFFFFF" width="20" height="7"/>
	<rect x="294" y="128" fill="#FFFFFF" width="20" height="7"/>
	<rect x="294" y="144" fill="#FFFFFF" width="20" height="7"/>
	<rect x="294" y="136" fill="#FFFFFF" width="20" height="7"/>
	<rect x="294" y="152" fill="#FFFFFF" width="20" height="7"/>
	<rect x="294" y="72" fill="#FFFFFF" width="20" height="7"/>
	<rect x="294" y="353" fill="#FFFFFF" width="20" height="7"/>
	<rect x="273" y="225" fill="#FFFFFF" width="20" height="7"/>
	<rect x="273" y="233" fill="#FFFFFF" width="20" height="7"/>
	<rect x="273" y="249" fill="#FFFFFF" width="20" height="7"/>
	<rect x="273" y="257" fill="#FFFFFF" width="20" height="7"/>
	<rect x="273" y="201" fill="#FFFFFF" width="20" height="7"/>
	<rect x="273" y="190" fill="#FFFFFF" width="20" height="10"/>
	<rect x="273" y="179" fill="#FFFFFF" width="20" height="10"/>
	<rect x="273" y="209" fill="#FFFFFF" width="20" height="7"/>
	<rect x="273" y="217" fill="#FFFFFF" width="20" height="7"/>
	<rect x="273" y="265" fill="#FFFFFF" width="20" height="7"/>
	<rect x="273" y="241" fill="#FFFFFF" width="20" height="7"/>
	<rect x="273" y="345" fill="#FFFFFF" width="20" height="7"/>
	<rect x="273" y="329" fill="#FFFFFF" width="20" height="7"/>
	<rect x="273" y="337" fill="#FFFFFF" width="20" height="7"/>
	<rect x="273" fill="#FFFFFF" width="20" height="7"/>
	<rect x="273" y="321" fill="#FFFFFF" width="20" height="7"/>
	<rect x="273" y="281" fill="#FFFFFF" width="20" height="7"/>
	<rect x="273" y="273" fill="#FFFFFF" width="20" height="7"/>
	<rect x="273" y="289" fill="#FFFFFF" width="20" height="7"/>
	<rect x="273" y="297" fill="#FFFFFF" width="20" height="7"/>
	<rect x="273" y="305" fill="#FFFFFF" width="20" height="7"/>
	<rect x="273" y="313" fill="#FFFFFF" width="20" height="7"/>
	<rect x="210" y="64" fill="#FFFFFF" width="20" height="7"/>
	<rect x="210" y="305" fill="#FFFFFF" width="20" height="7"/>
	<rect x="210" y="313" fill="#FFFFFF" width="20" height="7"/>
	<rect x="210" fill="#FFFFFF" width="20" height="7"/>
	<rect x="210" y="257" fill="#FFFFFF" width="20" height="7"/>
	<rect x="210" y="345" fill="#FFFFFF" width="20" height="7"/>
	<rect x="210" y="337" fill="#FFFFFF" width="20" height="7"/>
	<rect x="210" y="329" fill="#FFFFFF" width="20" height="7"/>
	<rect x="210" y="265" fill="#FFFFFF" width="20" height="7"/>
	<rect x="210" y="273" fill="#FFFFFF" width="20" height="7"/>
	<rect x="210" y="289" fill="#FFFFFF" width="20" height="7"/>
	<rect x="231" y="88" fill="#FFFFFF" width="20" height="7"/>
	<rect x="210" y="297" fill="#FFFFFF" width="20" height="7"/>
	<rect x="210" y="321" fill="#FFFFFF" width="20" height="7"/>
	<rect x="231" y="48" fill="#FFFFFF" width="20" height="7"/>
	<rect x="231" y="56" fill="#FFFFFF" width="20" height="7"/>
	<rect x="231" y="64" fill="#FFFFFF" width="20" height="7"/>
	<rect x="252" y="128" fill="#FFFFFF" width="20" height="7"/>
	<rect x="231" y="72" fill="#FFFFFF" width="20" height="7"/>
	<rect x="231" y="353" fill="#FFFFFF" width="20" height="7"/>
	<rect x="231" y="8" fill="#FFFFFF" width="20" height="7"/>
	<rect x="231" y="40" fill="#FFFFFF" width="20" height="7"/>
	<rect x="231" y="16" fill="#FFFFFF" width="20" height="7"/>
	<rect x="231" y="24" fill="#FFFFFF" width="20" height="7"/>
	<rect x="231" y="32" fill="#FFFFFF" width="20" height="7"/>
	<rect x="210" y="281" fill="#FFFFFF" width="20" height="7"/>
	<rect x="210" y="112" fill="#FFFFFF" width="20" height="7"/>
	<rect x="210" y="120" fill="#FFFFFF" width="20" height="7"/>
	<rect x="210" y="136" fill="#FFFFFF" width="20" height="7"/>
	<rect x="210" y="104" fill="#FFFFFF" width="20" height="7"/>
	<rect x="210" y="128" fill="#FFFFFF" width="20" height="7"/>
	<rect x="210" y="144" fill="#FFFFFF" width="20" height="7"/>
	<rect x="210" y="96" fill="#FFFFFF" width="20" height="7"/>
	<rect x="210" y="72" fill="#FFFFFF" width="20" height="7"/>
	<rect x="294" y="209" fill="#FFFFFF" width="20" height="7"/>
	<rect x="210" y="88" fill="#FFFFFF" width="20" height="7"/>
	<rect x="210" y="80" fill="#FFFFFF" width="20" height="7"/>
	<rect x="210" y="190" fill="#FFFFFF" width="20" height="10"/>
	<rect x="210" y="217" fill="#FFFFFF" width="20" height="7"/>
	<rect x="210" y="209" fill="#FFFFFF" width="20" height="7"/>
	<rect x="210" y="225" fill="#FFFFFF" width="20" height="7"/>
	<rect x="210" y="241" fill="#FFFFFF" width="20" height="7"/>
	<rect x="210" y="233" fill="#FFFFFF" width="20" height="7"/>
	<rect x="210" y="201" fill="#FFFFFF" width="20" height="7"/>
	<rect x="210" y="160" fill="#FFFFFF" width="20" height="7"/>
	<rect x="210" y="168" fill="#FFFFFF" width="20" height="10"/>
	<rect x="210" y="152" fill="#FFFFFF" width="20" height="7"/>
	<rect x="210" y="179" fill="#FFFFFF" width="20" height="10"/>
	<rect x="210" y="249" fill="#FFFFFF" width="20" height="7"/>
	<rect x="231" y="80" fill="#FFFFFF" width="20" height="7"/>
	<rect x="252" y="353" fill="#FFFFFF" width="20" height="7"/>
	<rect x="231" fill="#FFFFFF" width="20" height="7"/>
	<rect x="252" y="8" fill="#FFFFFF" width="20" height="7"/>
	<rect x="231" y="337" fill="#FFFFFF" width="20" height="7"/>
	<rect x="210" y="56" fill="#FFFFFF" width="20" height="7"/>
	<rect x="252" y="24" fill="#FFFFFF" width="20" height="7"/>
	<rect x="231" y="329" fill="#FFFFFF" width="20" height="7"/>
	<rect x="231" y="305" fill="#FFFFFF" width="20" height="7"/>
	<rect x="231" y="345" fill="#FFFFFF" width="20" height="7"/>
	<rect x="231" y="313" fill="#FFFFFF" width="20" height="7"/>
	<rect x="252" y="32" fill="#FFFFFF" width="20" height="7"/>
	<rect x="231" y="321" fill="#FFFFFF" width="20" height="7"/>
	<rect x="252" y="72" fill="#FFFFFF" width="20" height="7"/>
	<rect x="252" y="104" fill="#FFFFFF" width="20" height="7"/>
	<rect x="252" y="88" fill="#FFFFFF" width="20" height="7"/>
	<rect x="252" y="96" fill="#FFFFFF" width="20" height="7"/>
	<rect x="252" y="40" fill="#FFFFFF" width="20" height="7"/>
	<rect x="252" y="120" fill="#FFFFFF" width="20" height="7"/>
	<rect x="252" y="112" fill="#FFFFFF" width="20" height="7"/>
	<rect x="231" y="96" fill="#FFFFFF" width="20" height="7"/>
	<rect x="252" y="48" fill="#FFFFFF" width="20" height="7"/>
	<rect x="252" y="80" fill="#FFFFFF" width="20" height="7"/>
	<rect x="231" y="297" fill="#FFFFFF" width="20" height="7"/>
	<rect x="252" y="64" fill="#FFFFFF" width="20" height="7"/>
	<rect x="252" y="56" fill="#FFFFFF" width="20" height="7"/>
	<rect x="231" y="152" fill="#FFFFFF" width="20" height="7"/>
	<rect x="231" y="160" fill="#FFFFFF" width="20" height="7"/>
	<rect x="231" y="168" fill="#FFFFFF" width="20" height="10"/>
	<rect x="231" y="190" fill="#FFFFFF" width="20" height="10"/>
	<rect x="231" y="144" fill="#FFFFFF" width="20" height="7"/>
	<rect x="231" y="179" fill="#FFFFFF" width="20" height="10"/>
	<rect x="231" y="112" fill="#FFFFFF" width="20" height="7"/>
	<rect x="231" y="136" fill="#FFFFFF" width="20" height="7"/>
	<rect x="231" y="104" fill="#FFFFFF" width="20" height="7"/>
	<rect x="231" y="120" fill="#FFFFFF" width="20" height="7"/>
	<rect x="231" y="289" fill="#FFFFFF" width="20" height="7"/>
	<rect x="231" y="128" fill="#FFFFFF" width="20" height="7"/>
	<rect x="231" y="257" fill="#FFFFFF" width="20" height="7"/>
	<rect x="231" y="265" fill="#FFFFFF" width="20" height="7"/>
	<rect x="231" y="281" fill="#FFFFFF" width="20" height="7"/>
	<rect x="231" y="273" fill="#FFFFFF" width="20" height="7"/>
	<rect x="231" y="249" fill="#FFFFFF" width="20" height="7"/>
	<rect x="231" y="209" fill="#FFFFFF" width="20" height="7"/>
	<rect x="231" y="241" fill="#FFFFFF" width="20" height="7"/>
	<rect x="231" y="217" fill="#FFFFFF" width="20" height="7"/>
	<rect x="231" y="201" fill="#FFFFFF" width="20" height="7"/>
	<rect x="231" y="233" fill="#FFFFFF" width="20" height="7"/>
	<rect x="231" y="225" fill="#FFFFFF" width="20" height="7"/>
	<rect x="252" y="16" fill="#FFFFFF" width="20" height="7"/>
	<rect x="357" y="201" fill="#FFFFFF" width="20" height="7"/>
	<rect x="357" y="225" fill="#FFFFFF" width="20" height="7"/>
	<rect x="357" y="168" fill="#FFFFFF" width="20" height="10"/>
	<rect x="357" y="179" fill="#FFFFFF" width="20" height="10"/>
	<rect x="357" y="209" fill="#FFFFFF" width="20" height="7"/>
	<rect x="357" y="217" fill="#FFFFFF" width="20" height="7"/>
	<rect x="357" y="190" fill="#FFFFFF" width="20" height="10"/>
	<rect x="357" y="160" fill="#FFFFFF" width="20" height="7"/>
	<rect x="357" y="136" fill="#FFFFFF" width="20" height="7"/>
	<rect x="357" y="128" fill="#FFFFFF" width="20" height="7"/>
	<rect x="357" y="144" fill="#FFFFFF" width="20" height="7"/>
	<rect x="336" y="289" fill="#FFFFFF" width="20" height="7"/>
	<rect x="357" y="265" fill="#FFFFFF" width="20" height="7"/>
	<rect x="357" y="321" fill="#FFFFFF" width="20" height="7"/>
	<rect x="357" y="289" fill="#FFFFFF" width="20" height="7"/>
	<rect x="357" y="305" fill="#FFFFFF" width="20" height="7"/>
	<rect x="357" y="313" fill="#FFFFFF" width="20" height="7"/>
	<rect x="357" y="281" fill="#FFFFFF" width="20" height="7"/>
	<rect x="357" y="273" fill="#FFFFFF" width="20" height="7"/>
	<rect x="357" y="241" fill="#FFFFFF" width="20" height="7"/>
	<rect x="357" y="249" fill="#FFFFFF" width="20" height="7"/>
	<rect x="357" y="257" fill="#FFFFFF" width="20" height="7"/>
	<rect x="357" y="120" fill="#FFFFFF" width="20" height="7"/>
	<rect x="357" y="233" fill="#FFFFFF" width="20" height="7"/>
	<rect x="357" y="297" fill="#FFFFFF" width="20" height="7"/>
	<rect x="357" y="16" fill="#FFFFFF" width="20" height="7"/>
	<rect x="336" y="337" fill="#FFFFFF" width="20" height="7"/>
	<rect x="357" y="8" fill="#FFFFFF" width="20" height="7"/>
	<rect x="357" y="353" fill="#FFFFFF" width="20" height="7"/>
	<rect x="357" y="112" fill="#FFFFFF" width="20" height="7"/>
	<rect x="336" fill="#FFFFFF" width="20" height="7"/>
	<rect x="336" y="297" fill="#FFFFFF" width="20" height="7"/>
	<rect x="336" y="329" fill="#FFFFFF" width="20" height="7"/>
	<rect x="336" y="305" fill="#FFFFFF" width="20" height="7"/>
	<rect x="336" y="313" fill="#FFFFFF" width="20" height="7"/>
	<rect x="336" y="321" fill="#FFFFFF" width="20" height="7"/>
	<rect x="336" y="345" fill="#FFFFFF" width="20" height="7"/>
	<rect x="357" y="72" fill="#FFFFFF" width="20" height="7"/>
	<rect x="357" y="88" fill="#FFFFFF" width="20" height="7"/>
	<rect x="357" y="80" fill="#FFFFFF" width="20" height="7"/>
	<rect x="357" y="104" fill="#FFFFFF" width="20" height="7"/>
	<rect x="357" y="96" fill="#FFFFFF" width="20" height="7"/>
	<rect x="357" y="64" fill="#FFFFFF" width="20" height="7"/>
	<rect x="357" y="40" fill="#FFFFFF" width="20" height="7"/>
	<rect x="357" y="32" fill="#FFFFFF" width="20" height="7"/>
	<rect x="357" y="24" fill="#FFFFFF" width="20" height="7"/>
	<rect x="357" y="48" fill="#FFFFFF" width="20" height="7"/>
	<rect x="357" y="56" fill="#FFFFFF" width="20" height="7"/>
	<rect x="357" y="152" fill="#FFFFFF" width="20" height="7"/>
	<rect x="378" y="233" fill="#FFFFFF" width="20" height="7"/>
	<rect x="378" y="225" fill="#FFFFFF" width="20" height="7"/>
	<rect x="378" y="241" fill="#FFFFFF" width="20" height="7"/>
	<rect x="378" y="160" fill="#FFFFFF" width="20" height="7"/>
	<rect x="378" y="217" fill="#FFFFFF" width="20" height="7"/>
	<rect x="378" y="257" fill="#FFFFFF" width="20" height="7"/>
	<rect x="378" y="265" fill="#FFFFFF" width="20" height="7"/>
	<rect x="378" y="168" fill="#FFFFFF" width="20" height="10"/>
	<rect x="378" y="179" fill="#FFFFFF" width="20" height="10"/>
	<rect x="378" y="190" fill="#FFFFFF" width="20" height="10"/>
	<rect x="378" y="209" fill="#FFFFFF" width="20" height="7"/>
	<rect x="378" y="201" fill="#FFFFFF" width="20" height="7"/>
	<rect x="378" y="249" fill="#FFFFFF" width="20" height="7"/>
	<rect x="378" y="345" fill="#FFFFFF" width="20" height="7"/>
	<rect x="378" y="321" fill="#FFFFFF" width="20" height="7"/>
	<rect x="378" y="329" fill="#FFFFFF" width="20" height="7"/>
	<rect x="378" fill="#FFFFFF" width="20" height="7"/>
	<rect x="378" y="337" fill="#FFFFFF" width="20" height="7"/>
	<rect x="378" y="313" fill="#FFFFFF" width="20" height="7"/>
	<rect x="378" y="289" fill="#FFFFFF" width="20" height="7"/>
	<rect x="378" y="281" fill="#FFFFFF" width="20" height="7"/>
	<rect x="378" y="297" fill="#FFFFFF" width="20" height="7"/>
	<rect x="378" y="273" fill="#FFFFFF" width="20" height="7"/>
	<rect x="378" y="305" fill="#FFFFFF" width="20" height="7"/>
	<rect x="357" y="329" fill="#FFFFFF" width="20" height="7"/>
	<rect x="378" y="32" fill="#FFFFFF" width="20" height="7"/>
	<rect x="378" y="16" fill="#FFFFFF" width="20" height="7"/>
	<rect x="378" y="24" fill="#FFFFFF" width="20" height="7"/>
	<rect x="378" y="40" fill="#FFFFFF" width="20" height="7"/>
	<rect x="378" y="48" fill="#FFFFFF" width="20" height="7"/>
	<rect x="357" fill="#FFFFFF" width="20" height="7"/>
	<rect x="357" y="337" fill="#FFFFFF" width="20" height="7"/>
	<rect x="357" y="345" fill="#FFFFFF" width="20" height="7"/>
	<rect x="378" y="353" fill="#FFFFFF" width="20" height="7"/>
	<rect x="378" y="56" fill="#FFFFFF" width="20" height="7"/>
	<rect x="378" y="8" fill="#FFFFFF" width="20" height="7"/>
	<rect x="378" y="72" fill="#FFFFFF" width="20" height="7"/>
	<rect x="378" y="128" fill="#FFFFFF" width="20" height="7"/>
	<rect x="378" y="112" fill="#FFFFFF" width="20" height="7"/>
	<rect x="378" y="120" fill="#FFFFFF" width="20" height="7"/>
	<rect x="378" y="136" fill="#FFFFFF" width="20" height="7"/>
	<rect x="378" y="144" fill="#FFFFFF" width="20" height="7"/>
	<rect x="378" y="104" fill="#FFFFFF" width="20" height="7"/>
	<rect x="378" y="80" fill="#FFFFFF" width="20" height="7"/>
	<rect x="378" y="64" fill="#FFFFFF" width="20" height="7"/>
	<rect x="378" y="152" fill="#FFFFFF" width="20" height="7"/>
	<rect x="378" y="88" fill="#FFFFFF" width="20" height="7"/>
	<rect x="378" y="96" fill="#FFFFFF" width="20" height="7"/>
	<rect x="294" y="305" fill="#FFFFFF" width="20" height="7"/>
	<rect x="315" y="112" fill="#FFFFFF" width="20" height="7"/>
	<rect x="315" y="120" fill="#FFFFFF" width="20" height="7"/>
	<rect x="315" y="96" fill="#FFFFFF" width="20" height="7"/>
	<rect x="315" y="104" fill="#FFFFFF" width="20" height="7"/>
	<rect x="315" y="249" fill="#FFFFFF" width="20" height="7"/>
	<rect x="315" y="128" fill="#FFFFFF" width="20" height="7"/>
	<rect x="315" y="72" fill="#FFFFFF" width="20" height="7"/>
	<rect x="315" y="56" fill="#FFFFFF" width="20" height="7"/>
	<rect x="315" y="88" fill="#FFFFFF" width="20" height="7"/>
	<rect x="315" y="64" fill="#FFFFFF" width="20" height="7"/>
	<rect x="315" y="80" fill="#FFFFFF" width="20" height="7"/>
	<rect x="315" y="144" fill="#FFFFFF" width="20" height="7"/>
	<rect x="315" y="241" fill="#FFFFFF" width="20" height="7"/>
	<rect x="315" y="225" fill="#FFFFFF" width="20" height="7"/>
	<rect x="315" y="217" fill="#FFFFFF" width="20" height="7"/>
	<rect x="315" y="209" fill="#FFFFFF" width="20" height="7"/>
	<rect x="315" y="48" fill="#FFFFFF" width="20" height="7"/>
	<rect x="315" y="233" fill="#FFFFFF" width="20" height="7"/>
	<rect x="315" y="168" fill="#FFFFFF" width="20" height="10"/>
	<rect x="315" y="152" fill="#FFFFFF" width="20" height="7"/>
	<rect x="315" y="160" fill="#FFFFFF" width="20" height="7"/>
	<rect x="315" y="179" fill="#FFFFFF" width="20" height="10"/>
	<rect x="315" y="201" fill="#FFFFFF" width="20" height="7"/>
	<rect x="315" y="190" fill="#FFFFFF" width="20" height="10"/>
	<rect x="315" y="136" fill="#FFFFFF" width="20" height="7"/>
	<rect x="294" y="265" fill="#FFFFFF" width="20" height="7"/>
	<rect x="294" y="281" fill="#FFFFFF" width="20" height="7"/>
	<rect x="294" y="273" fill="#FFFFFF" width="20" height="7"/>
	<rect x="294" y="297" fill="#FFFFFF" width="20" height="7"/>
	<rect x="294" y="289" fill="#FFFFFF" width="20" height="7"/>
	<rect x="294" y="241" fill="#FFFFFF" width="20" height="7"/>
	<rect x="294" y="257" fill="#FFFFFF" width="20" height="7"/>
	<rect x="294" y="233" fill="#FFFFFF" width="20" height="7"/>
	<rect x="294" y="225" fill="#FFFFFF" width="20" height="7"/>
	<rect x="294" y="217" fill="#FFFFFF" width="20" height="7"/>
	<rect x="294" y="249" fill="#FFFFFF" width="20" height="7"/>
	<rect x="315" y="32" fill="#FFFFFF" width="20" height="7"/>
	<rect x="315" y="8" fill="#FFFFFF" width="20" height="7"/>
	<rect x="315" y="16" fill="#FFFFFF" width="20" height="7"/>
	<rect x="315" y="24" fill="#FFFFFF" width="20" height="7"/>
	<rect x="315" y="40" fill="#FFFFFF" width="20" height="7"/>
	<rect x="315" y="353" fill="#FFFFFF" width="20" height="7"/>
	<rect x="294" y="345" fill="#FFFFFF" width="20" height="7"/>
	<rect x="294" y="329" fill="#FFFFFF" width="20" height="7"/>
	<rect x="294" y="321" fill="#FFFFFF" width="20" height="7"/>
	<rect x="294" y="313" fill="#FFFFFF" width="20" height="7"/>
	<rect x="294" y="337" fill="#FFFFFF" width="20" height="7"/>
	<rect x="294" fill="#FFFFFF" width="20" height="7"/>
	<rect x="336" y="136" fill="#FFFFFF" width="20" height="7"/>
	<rect x="336" y="144" fill="#FFFFFF" width="20" height="7"/>
	<rect x="336" y="152" fill="#FFFFFF" width="20" height="7"/>
	<rect x="336" y="168" fill="#FFFFFF" width="20" height="10"/>
	<rect x="336" y="179" fill="#FFFFFF" width="20" height="10"/>
	<rect x="336" y="281" fill="#FFFFFF" width="20" height="7"/>
	<rect x="336" y="160" fill="#FFFFFF" width="20" height="7"/>
	<rect x="336" y="128" fill="#FFFFFF" width="20" height="7"/>
	<rect x="336" y="96" fill="#FFFFFF" width="20" height="7"/>
	<rect x="336" y="104" fill="#FFFFFF" width="20" height="7"/>
	<rect x="336" y="120" fill="#FFFFFF" width="20" height="7"/>
	<rect x="336" y="112" fill="#FFFFFF" width="20" height="7"/>
	<rect x="336" y="241" fill="#FFFFFF" width="20" height="7"/>
	<rect x="336" y="249" fill="#FFFFFF" width="20" height="7"/>
	<rect x="336" y="88" fill="#FFFFFF" width="20" height="7"/>
	<rect x="336" y="257" fill="#FFFFFF" width="20" height="7"/>
	<rect x="336" y="273" fill="#FFFFFF" width="20" height="7"/>
	<rect x="336" y="265" fill="#FFFFFF" width="20" height="7"/>
	<rect x="336" y="225" fill="#FFFFFF" width="20" height="7"/>
	<rect x="336" y="209" fill="#FFFFFF" width="20" height="7"/>
	<rect x="336" y="201" fill="#FFFFFF" width="20" height="7"/>
	<rect x="336" y="190" fill="#FFFFFF" width="20" height="10"/>
	<rect x="336" y="233" fill="#FFFFFF" width="20" height="7"/>
	<rect x="336" y="217" fill="#FFFFFF" width="20" height="7"/>
	<rect x="315" y="329" fill="#FFFFFF" width="20" height="7"/>
	<rect x="315" y="313" fill="#FFFFFF" width="20" height="7"/>
	<rect x="315" y="305" fill="#FFFFFF" width="20" height="7"/>
	<rect x="315" y="321" fill="#FFFFFF" width="20" height="7"/>
	<rect x="336" y="80" fill="#FFFFFF" width="20" height="7"/>
	<rect x="315" y="345" fill="#FFFFFF" width="20" height="7"/>
	<rect x="315" y="257" fill="#FFFFFF" width="20" height="7"/>
	<rect x="315" y="273" fill="#FFFFFF" width="20" height="7"/>
	<rect x="315" y="265" fill="#FFFFFF" width="20" height="7"/>
	<rect x="315" y="281" fill="#FFFFFF" width="20" height="7"/>
	<rect x="315" y="289" fill="#FFFFFF" width="20" height="7"/>
	<rect x="315" y="297" fill="#FFFFFF" width="20" height="7"/>
	<rect x="315" y="337" fill="#FFFFFF" width="20" height="7"/>
	<rect x="336" y="56" fill="#FFFFFF" width="20" height="7"/>
	<rect x="336" y="48" fill="#FFFFFF" width="20" height="7"/>
	<rect x="336" y="64" fill="#FFFFFF" width="20" height="7"/>
	<rect x="336" y="72" fill="#FFFFFF" width="20" height="7"/>
	<rect x="336" y="40" fill="#FFFFFF" width="20" height="7"/>
	<rect x="336" y="16" fill="#FFFFFF" width="20" height="7"/>
	<rect x="336" y="353" fill="#FFFFFF" width="20" height="7"/>
	<rect x="336" y="8" fill="#FFFFFF" width="20" height="7"/>
	<rect x="336" y="32" fill="#FFFFFF" width="20" height="7"/>
	<rect x="315" fill="#FFFFFF" width="20" height="7"/>
	<rect x="336" y="24" fill="#FFFFFF" width="20" height="7"/>
	<rect x="147" y="96" fill="#FFFFFF" width="20" height="7"/>
	<rect x="63" y="313" fill="#FFFFFF" width="20" height="7"/>
	<rect x="63" y="249" fill="#FFFFFF" width="20" height="7"/>
	<rect x="63" y="337" fill="#FFFFFF" width="20" height="7"/>
	<rect x="63" y="297" fill="#FFFFFF" width="20" height="7"/>
	<rect x="63" y="329" fill="#FFFFFF" width="20" height="7"/>
	<rect x="63" y="345" fill="#FFFFFF" width="20" height="7"/>
	<rect x="63" y="321" fill="#FFFFFF" width="20" height="7"/>
	<rect x="63" y="265" fill="#FFFFFF" width="20" height="7"/>
	<rect x="63" y="257" fill="#FFFFFF" width="20" height="7"/>
	<rect x="63" y="273" fill="#FFFFFF" width="20" height="7"/>
	<rect x="63" y="289" fill="#FFFFFF" width="20" height="7"/>
	<rect x="63" y="281" fill="#FFFFFF" width="20" height="7"/>
	<rect x="63" y="305" fill="#FFFFFF" width="20" height="7"/>
	<rect x="84" y="120" fill="#FFFFFF" width="20" height="7"/>
	<rect x="84" y="112" fill="#FFFFFF" width="20" height="7"/>
	<rect x="84" y="128" fill="#FFFFFF" width="20" height="7"/>
	<rect x="84" y="353" fill="#FFFFFF" width="20" height="7"/>
	<rect x="84" y="136" fill="#FFFFFF" width="20" height="7"/>
	<rect x="84" y="144" fill="#FFFFFF" width="20" height="7"/>
	<rect x="84" y="104" fill="#FFFFFF" width="20" height="7"/>
	<rect x="84" y="72" fill="#FFFFFF" width="20" height="7"/>
	<rect x="84" y="80" fill="#FFFFFF" width="20" height="7"/>
	<rect x="84" y="88" fill="#FFFFFF" width="20" height="7"/>
	<rect x="84" y="96" fill="#FFFFFF" width="20" height="7"/>
	<rect x="21" y="281" fill="#FFFFFF" width="20" height="7"/>
	<rect x="21" y="297" fill="#FFFFFF" width="20" height="7"/>
	<rect x="21" y="305" fill="#FFFFFF" width="20" height="7"/>
	<rect x="21" y="313" fill="#FFFFFF" width="20" height="7"/>
	<rect x="21" y="321" fill="#FFFFFF" width="20" height="7"/>
	<rect x="21" y="289" fill="#FFFFFF" width="20" height="7"/>
	<rect x="21" y="241" fill="#FFFFFF" width="20" height="7"/>
	<rect x="84" y="152" fill="#FFFFFF" width="20" height="7"/>
	<rect x="21" y="257" fill="#FFFFFF" width="20" height="7"/>
	<rect x="21" y="249" fill="#FFFFFF" width="20" height="7"/>
	<rect x="21" y="265" fill="#FFFFFF" width="20" height="7"/>
	<rect x="63" y="241" fill="#FFFFFF" width="20" height="7"/>
	<rect x="21" y="273" fill="#FFFFFF" width="20" height="7"/>
	<rect x="63" y="217" fill="#FFFFFF" width="20" height="7"/>
	<rect x="21" y="345" fill="#FFFFFF" width="20" height="7"/>
	<rect x="63" y="201" fill="#FFFFFF" width="20" height="7"/>
	<rect x="63" y="225" fill="#FFFFFF" width="20" height="7"/>
	<rect x="63" y="233" fill="#FFFFFF" width="20" height="7"/>
	<rect x="63" y="209" fill="#FFFFFF" width="20" height="7"/>
	<rect x="63" y="190" fill="#FFFFFF" width="20" height="10"/>
	<rect x="21" y="337" fill="#FFFFFF" width="20" height="7"/>
	<rect x="63" y="353" fill="#FFFFFF" width="20" height="7"/>
	<rect x="63" y="168" fill="#FFFFFF" width="20" height="10"/>
	<rect x="63" y="179" fill="#FFFFFF" width="20" height="10"/>
	<rect x="21" y="329" fill="#FFFFFF" width="20" height="7"/>
	<rect x="105" y="136" fill="#FFFFFF" width="20" height="7"/>
	<rect x="105" y="353" fill="#FFFFFF" width="20" height="7"/>
	<rect x="105" y="120" fill="#FFFFFF" width="20" height="7"/>
	<rect x="105" y="112" fill="#FFFFFF" width="20" height="7"/>
	<rect x="105" y="160" fill="#FFFFFF" width="20" height="7"/>
	<rect x="105" y="144" fill="#FFFFFF" width="20" height="7"/>
	<rect x="105" y="152" fill="#FFFFFF" width="20" height="7"/>
	<rect x="105" y="72" fill="#FFFFFF" width="20" height="7"/>
	<rect x="105" y="80" fill="#FFFFFF" width="20" height="7"/>
	<rect x="105" y="96" fill="#FFFFFF" width="20" height="7"/>
	<rect x="105" y="104" fill="#FFFFFF" width="20" height="7"/>
	<rect x="105" y="88" fill="#FFFFFF" width="20" height="7"/>
	<rect x="105" y="128" fill="#FFFFFF" width="20" height="7"/>
	<rect x="105" y="225" fill="#FFFFFF" width="20" height="7"/>
	<rect x="105" y="233" fill="#FFFFFF" width="20" height="7"/>
	<rect x="105" y="241" fill="#FFFFFF" width="20" height="7"/>
	<rect x="105" y="257" fill="#FFFFFF" width="20" height="7"/>
	<rect x="105" y="249" fill="#FFFFFF" width="20" height="7"/>
	<rect x="105" y="201" fill="#FFFFFF" width="20" height="7"/>
	<rect x="84" y="160" fill="#FFFFFF" width="20" height="7"/>
	<rect x="105" y="179" fill="#FFFFFF" width="20" height="10"/>
	<rect x="105" y="217" fill="#FFFFFF" width="20" height="7"/>
	<rect x="105" y="209" fill="#FFFFFF" width="20" height="7"/>
	<rect x="105" y="168" fill="#FFFFFF" width="20" height="10"/>
	<rect x="105" y="190" fill="#FFFFFF" width="20" height="10"/>
	<rect x="84" y="217" fill="#FFFFFF" width="20" height="7"/>
	<rect x="84" y="225" fill="#FFFFFF" width="20" height="7"/>
	<rect x="84" y="233" fill="#FFFFFF" width="20" height="7"/>
	<rect x="84" y="241" fill="#FFFFFF" width="20" height="7"/>
	<rect x="84" y="249" fill="#FFFFFF" width="20" height="7"/>
	<rect x="84" y="168" fill="#FFFFFF" width="20" height="10"/>
	<rect x="84" y="179" fill="#FFFFFF" width="20" height="10"/>
	<rect x="84" y="257" fill="#FFFFFF" width="20" height="7"/>
	<rect x="84" y="201" fill="#FFFFFF" width="20" height="7"/>
	<rect x="84" y="209" fill="#FFFFFF" width="20" height="7"/>
	<rect x="84" y="190" fill="#FFFFFF" width="20" height="10"/>
	<rect x="84" y="337" fill="#FFFFFF" width="20" height="7"/>
	<rect x="84" y="321" fill="#FFFFFF" width="20" height="7"/>
	<rect x="84" y="313" fill="#FFFFFF" width="20" height="7"/>
	<rect x="84" y="329" fill="#FFFFFF" width="20" height="7"/>
	<polygon fill="#FFFFFF" points="84,71 104,71 104,64 85.439,64 84,66.3 	"/>
	<rect x="84" y="265" fill="#FFFFFF" width="20" height="7"/>
	<rect x="84" y="345" fill="#FFFFFF" width="20" height="7"/>
	<rect x="84" y="281" fill="#FFFFFF" width="20" height="7"/>
	<rect x="84" y="273" fill="#FFFFFF" width="20" height="7"/>
	<rect x="84" y="297" fill="#FFFFFF" width="20" height="7"/>
	<rect x="84" y="305" fill="#FFFFFF" width="20" height="7"/>
	<rect x="84" y="289" fill="#FFFFFF" width="20" height="7"/>
	<rect x="42" y="233" fill="#FFFFFF" width="20" height="7"/>
	<rect x="189" y="361" fill="#FFFFFF" width="20" height="7"/>
	<rect x="168" y="361" fill="#FFFFFF" width="20" height="7"/>
	<rect x="210" y="361" fill="#FFFFFF" width="20" height="7"/>
	<rect x="231" y="361" fill="#FFFFFF" width="20" height="7"/>
	<rect x="126" y="361" fill="#FFFFFF" width="20" height="7"/>
	<rect x="147" y="361" fill="#FFFFFF" width="20" height="7"/>
	<rect x="294" y="361" fill="#FFFFFF" width="20" height="7"/>
	<rect x="252" y="361" fill="#FFFFFF" width="20" height="7"/>
	<rect x="315" y="361" fill="#FFFFFF" width="20" height="7"/>
	<rect x="336" y="361" fill="#FFFFFF" width="20" height="7"/>
	<rect x="105" y="361" fill="#FFFFFF" width="20" height="7"/>
	<rect x="273" y="361" fill="#FFFFFF" width="20" height="7"/>
	<rect y="337" fill="#FFFFFF" width="20" height="7"/>
	<rect y="329" fill="#FFFFFF" width="20" height="7"/>
	<rect x="357" y="361" fill="#FFFFFF" width="20" height="7"/>
	<rect y="297" fill="#FFFFFF" width="20" height="7"/>
	<rect y="345" fill="#FFFFFF" width="20" height="7"/>
	<rect y="305" fill="#FFFFFF" width="20" height="7"/>
	<rect x="21" y="361" fill="#FFFFFF" width="20" height="7"/>
	<rect x="63" y="361" fill="#FFFFFF" width="20" height="7"/>
	<rect y="353" fill="#FFFFFF" width="20" height="7"/>
	<rect x="42" y="361" fill="#FFFFFF" width="20" height="7"/>
	<rect x="84" y="361" fill="#FFFFFF" width="20" height="7"/>
	<rect y="361" fill="#FFFFFF" width="20" height="7"/>
	<rect x="399" y="16" fill="#FFFFFF" width="20" height="7"/>
	<rect x="399" y="48" fill="#FFFFFF" width="20" height="7"/>
	<rect x="399" y="56" fill="#FFFFFF" width="20" height="7"/>
	<rect x="399" y="64" fill="#FFFFFF" width="20" height="7"/>
	<rect x="399" y="72" fill="#FFFFFF" width="20" height="7"/>
	<rect x="399" y="40" fill="#FFFFFF" width="20" height="7"/>
	<rect x="399" y="80" fill="#FFFFFF" width="20" height="7"/>
	<rect x="399" y="8" fill="#FFFFFF" width="20" height="7"/>
	<rect x="399" y="32" fill="#FFFFFF" width="20" height="7"/>
	<rect x="399" fill="#FFFFFF" width="20" height="7"/>
	<rect y="313" fill="#FFFFFF" width="20" height="7"/>
	<rect x="399" y="24" fill="#FFFFFF" width="20" height="7"/>
	<rect x="399" y="104" fill="#FFFFFF" width="20" height="7"/>
	<rect x="399" y="88" fill="#FFFFFF" width="20" height="7"/>
	<rect x="399" y="144" fill="#FFFFFF" width="20" height="7"/>
	<rect x="399" y="160" fill="#FFFFFF" width="20" height="7"/>
	<rect x="399" y="136" fill="#FFFFFF" width="20" height="7"/>
	<polygon fill="#FFFFFF" points="399,178 418.999,178 418.999,179 399,179 399,189 418.999,189 418.999,190 399,190 399,200 
		418.999,200 418.999,201 399,201 399,208 418.999,208 418.999,209 399,209 399,216 418.999,216 418.999,217 399,217 399,224 
		418.999,224 418.999,225 399,225 399,232 418.999,232 418.999,233 399,233 399,240 418.999,240 418.999,241 399,241 399,248 
		418.999,248 418.999,249 399,249 399,256 418.999,256 418.999,257 399,257 399,264 418.999,264 418.999,265 399,265 399,272 
		418.999,272 418.999,273 399,273 399,280 418.999,280 418.999,281 399,281 399,288 418.999,288 418.999,289 399,289 399,296 
		418.999,296 418.999,297 399,297 399,304 418.999,304 418.999,305 399,305 399,312 418.999,312 418.999,313 399,313 399,320 
		418.999,320 418.999,321 399,321 399,328 418.999,328 418.999,329 399,329 399,336 418.999,336 418.999,337 399,337 399,344 
		418.999,344 418.999,345 399,345 399,352 418.999,352 418.999,353 399,353 399,360 418.999,360 418.999,361 399,361 399,368 
		419,368 419,168 399,168 	"/>
	<rect x="399" y="152" fill="#FFFFFF" width="20" height="7"/>
	<rect x="399" y="96" fill="#FFFFFF" width="20" height="7"/>
	<rect x="378" y="361" fill="#FFFFFF" width="20" height="7"/>
	<rect x="399" y="120" fill="#FFFFFF" width="20" height="7"/>
	<rect x="399" y="128" fill="#FFFFFF" width="20" height="7"/>
	<rect x="399" y="112" fill="#FFFFFF" width="20" height="7"/>
	<rect x="42" y="201" fill="#FFFFFF" width="20" height="7"/>
	<rect x="42" y="289" fill="#FFFFFF" width="20" height="7"/>
	<rect x="42" y="297" fill="#FFFFFF" width="20" height="7"/>
	<rect x="42" y="313" fill="#FFFFFF" width="20" height="7"/>
	<rect x="42" y="281" fill="#FFFFFF" width="20" height="7"/>
	<rect y="321" fill="#FFFFFF" width="20" height="7"/>
	<rect x="42" y="305" fill="#FFFFFF" width="20" height="7"/>
	<rect x="42" y="273" fill="#FFFFFF" width="20" height="7"/>
	<rect x="42" y="241" fill="#FFFFFF" width="20" height="7"/>
	<rect x="42" y="249" fill="#FFFFFF" width="20" height="7"/>
	<rect x="42" y="257" fill="#FFFFFF" width="20" height="7"/>
	<rect x="105" y="265" fill="#FFFFFF" width="20" height="7"/>
	<rect x="42" y="265" fill="#FFFFFF" width="20" height="7"/>
	<rect x="21" y="190" fill="#FFFFFF" width="20" height="10"/>
	<rect x="21" y="209" fill="#FFFFFF" width="20" height="7"/>
	<rect x="42" y="329" fill="#FFFFFF" width="20" height="7"/>
	<rect x="21" y="217" fill="#FFFFFF" width="20" height="7"/>
	<rect x="21" y="225" fill="#FFFFFF" width="20" height="7"/>
	<rect x="21" y="201" fill="#FFFFFF" width="20" height="7"/>
	<rect x="42" y="337" fill="#FFFFFF" width="20" height="7"/>
	<rect x="42" y="345" fill="#FFFFFF" width="20" height="7"/>
	<rect x="21" y="179" fill="#FFFFFF" width="20" height="10"/>
	<rect x="21" y="353" fill="#FFFFFF" width="20" height="7"/>
	<rect x="21" y="168" fill="#FFFFFF" width="20" height="10"/>
	<rect x="42" y="321" fill="#FFFFFF" width="20" height="7"/>
	<rect y="257" fill="#FFFFFF" width="20" height="7"/>
	<rect y="241" fill="#FFFFFF" width="20" height="7"/>
	<rect y="249" fill="#FFFFFF" width="20" height="7"/>
	<rect y="225" fill="#FFFFFF" width="20" height="7"/>
	<rect y="217" fill="#FFFFFF" width="20" height="7"/>
	<rect y="265" fill="#FFFFFF" width="20" height="7"/>
	<rect y="281" fill="#FFFFFF" width="20" height="7"/>
	<rect y="233" fill="#FFFFFF" width="20" height="7"/>
	<rect y="289" fill="#FFFFFF" width="20" height="7"/>
	<rect y="273" fill="#FFFFFF" width="20" height="7"/>
	<rect x="42" y="225" fill="#FFFFFF" width="20" height="7"/>
	<rect y="209" fill="#FFFFFF" width="20" height="7"/>
	<rect x="42" y="179" fill="#FFFFFF" width="20" height="10"/>
	<rect x="42" y="190" fill="#FFFFFF" width="20" height="10"/>
	<rect x="21" y="233" fill="#FFFFFF" width="20" height="7"/>
	<rect x="42" y="209" fill="#FFFFFF" width="20" height="7"/>
	<rect x="42" y="217" fill="#FFFFFF" width="20" height="7"/>
	<polygon fill="#FFFFFF" points="20,168.546 14.082,178 20,178 	"/>
	<polygon fill="#FFFFFF" points="7.197,189 20,189 20,179 13.456,179 	"/>
	<polygon fill="#FFFFFF" points="20,190 6.571,190 0.312,200 20,200 	"/>
	<rect x="42" y="168" fill="#FFFFFF" width="20" height="10"/>
	<rect x="210" y="48" fill="#FFFFFF" width="20" height="7"/>
	<rect x="42" y="353" fill="#FFFFFF" width="20" height="7"/>
	<rect y="201" fill="#FFFFFF" width="20" height="7"/>
	<rect x="168" y="179" fill="#FFFFFF" width="20" height="10"/>
	<rect x="168" y="233" fill="#FFFFFF" width="20" height="7"/>
	<rect x="168" y="241" fill="#FFFFFF" width="20" height="7"/>
	<rect x="168" y="249" fill="#FFFFFF" width="20" height="7"/>
	<rect x="168" y="273" fill="#FFFFFF" width="20" height="7"/>
	<rect x="168" y="265" fill="#FFFFFF" width="20" height="7"/>
	<rect x="168" y="257" fill="#FFFFFF" width="20" height="7"/>
	<rect x="168" y="201" fill="#FFFFFF" width="20" height="7"/>
	<rect x="168" y="190" fill="#FFFFFF" width="20" height="10"/>
	<rect x="168" y="217" fill="#FFFFFF" width="20" height="7"/>
	<rect x="168" y="209" fill="#FFFFFF" width="20" height="7"/>
	<rect x="168" y="225" fill="#FFFFFF" width="20" height="7"/>
	<rect x="168" y="281" fill="#FFFFFF" width="20" height="7"/>
	<rect x="168" y="345" fill="#FFFFFF" width="20" height="7"/>
	<rect x="168" y="337" fill="#FFFFFF" width="20" height="7"/>
	<rect x="168" fill="#FFFFFF" width="20" height="7"/>
	<rect x="189" y="8" fill="#FFFFFF" width="20" height="7"/>
	<rect x="168" y="289" fill="#FFFFFF" width="20" height="7"/>
	<rect x="189" y="353" fill="#FFFFFF" width="20" height="7"/>
	<rect x="168" y="297" fill="#FFFFFF" width="20" height="7"/>
	<rect x="168" y="305" fill="#FFFFFF" width="20" height="7"/>
	<rect x="168" y="321" fill="#FFFFFF" width="20" height="7"/>
	<rect x="168" y="329" fill="#FFFFFF" width="20" height="7"/>
	<rect x="168" y="313" fill="#FFFFFF" width="20" height="7"/>
	<rect x="168" y="48" fill="#FFFFFF" width="20" height="7"/>
	<rect x="189" y="16" fill="#FFFFFF" width="20" height="7"/>
	<rect x="168" y="40" fill="#FFFFFF" width="20" height="7"/>
	<rect x="168" y="64" fill="#FFFFFF" width="20" height="7"/>
	<rect x="168" y="32" fill="#FFFFFF" width="20" height="7"/>
	<rect x="168" y="56" fill="#FFFFFF" width="20" height="7"/>
	<rect x="168" y="168" fill="#FFFFFF" width="20" height="10"/>
	<rect x="168" y="353" fill="#FFFFFF" width="20" height="7"/>
	<rect x="147" fill="#FFFFFF" width="20" height="7"/>
	<rect x="168" y="8" fill="#FFFFFF" width="20" height="7"/>
	<rect x="168" y="72" fill="#FFFFFF" width="20" height="7"/>
	<rect x="168" y="16" fill="#FFFFFF" width="20" height="7"/>
	<rect x="168" y="24" fill="#FFFFFF" width="20" height="7"/>
	<rect x="168" y="144" fill="#FFFFFF" width="20" height="7"/>
	<rect x="168" y="128" fill="#FFFFFF" width="20" height="7"/>
	<rect x="168" y="136" fill="#FFFFFF" width="20" height="7"/>
	<rect x="168" y="160" fill="#FFFFFF" width="20" height="7"/>
	<rect x="168" y="152" fill="#FFFFFF" width="20" height="7"/>
	<rect x="168" y="96" fill="#FFFFFF" width="20" height="7"/>
	<rect x="168" y="88" fill="#FFFFFF" width="20" height="7"/>
	<rect x="168" y="120" fill="#FFFFFF" width="20" height="7"/>
	<rect x="168" y="80" fill="#FFFFFF" width="20" height="7"/>
	<rect x="168" y="104" fill="#FFFFFF" width="20" height="7"/>
	<rect x="168" y="112" fill="#FFFFFF" width="20" height="7"/>
	<rect x="189" y="64" fill="#FFFFFF" width="20" height="7"/>
	<rect x="189" y="313" fill="#FFFFFF" width="20" height="7"/>
	<rect x="189" y="273" fill="#FFFFFF" width="20" height="7"/>
	<rect x="189" y="289" fill="#FFFFFF" width="20" height="7"/>
	<rect x="189" y="297" fill="#FFFFFF" width="20" height="7"/>
	<rect x="189" y="305" fill="#FFFFFF" width="20" height="7"/>
	<rect x="189" y="281" fill="#FFFFFF" width="20" height="7"/>
	<rect x="189" y="233" fill="#FFFFFF" width="20" height="7"/>
	<rect x="189" y="241" fill="#FFFFFF" width="20" height="7"/>
	<rect x="189" y="225" fill="#FFFFFF" width="20" height="7"/>
	<rect x="189" y="265" fill="#FFFFFF" width="20" height="7"/>
	<rect x="189" y="249" fill="#FFFFFF" width="20" height="7"/>
	<rect x="189" y="257" fill="#FFFFFF" width="20" height="7"/>
	<rect x="210" y="24" fill="#FFFFFF" width="20" height="7"/>
	<rect x="210" y="8" fill="#FFFFFF" width="20" height="7"/>
	<rect x="210" y="16" fill="#FFFFFF" width="20" height="7"/>
	<rect x="210" y="40" fill="#FFFFFF" width="20" height="7"/>
	<rect x="210" y="32" fill="#FFFFFF" width="20" height="7"/>
	<rect x="189" y="337" fill="#FFFFFF" width="20" height="7"/>
	<rect x="189" y="329" fill="#FFFFFF" width="20" height="7"/>
	<rect x="189" y="345" fill="#FFFFFF" width="20" height="7"/>
	<rect x="210" y="353" fill="#FFFFFF" width="20" height="7"/>
	<rect x="189" y="321" fill="#FFFFFF" width="20" height="7"/>
	<rect x="189" fill="#FFFFFF" width="20" height="7"/>
	<rect x="189" y="209" fill="#FFFFFF" width="20" height="7"/>
	<rect x="189" y="88" fill="#FFFFFF" width="20" height="7"/>
	<rect x="189" y="80" fill="#FFFFFF" width="20" height="7"/>
	<rect x="189" y="96" fill="#FFFFFF" width="20" height="7"/>
	<rect x="189" y="104" fill="#FFFFFF" width="20" height="7"/>
	<rect x="189" y="72" fill="#FFFFFF" width="20" height="7"/>
	<rect x="189" y="32" fill="#FFFFFF" width="20" height="7"/>
	<rect x="147" y="337" fill="#FFFFFF" width="20" height="7"/>
	<rect x="189" y="40" fill="#FFFFFF" width="20" height="7"/>
	<rect x="189" y="112" fill="#FFFFFF" width="20" height="7"/>
	<rect x="189" y="56" fill="#FFFFFF" width="20" height="7"/>
	<rect x="189" y="217" fill="#FFFFFF" width="20" height="7"/>
	<rect x="189" y="48" fill="#FFFFFF" width="20" height="7"/>
	<rect x="189" y="179" fill="#FFFFFF" width="20" height="10"/>
	<rect x="189" y="190" fill="#FFFFFF" width="20" height="10"/>
	<rect x="189" y="24" fill="#FFFFFF" width="20" height="7"/>
	<rect x="189" y="201" fill="#FFFFFF" width="20" height="7"/>
	<rect x="189" y="168" fill="#FFFFFF" width="20" height="10"/>
	<rect x="189" y="120" fill="#FFFFFF" width="20" height="7"/>
	<rect x="189" y="136" fill="#FFFFFF" width="20" height="7"/>
	<rect x="189" y="160" fill="#FFFFFF" width="20" height="7"/>
	<rect x="105" y="273" fill="#FFFFFF" width="20" height="7"/>
	<rect x="189" y="152" fill="#FFFFFF" width="20" height="7"/>
	<rect x="189" y="144" fill="#FFFFFF" width="20" height="7"/>
	<rect x="189" y="128" fill="#FFFFFF" width="20" height="7"/>
	<rect x="126" y="168" fill="#FFFFFF" width="20" height="10"/>
	<rect x="126" y="160" fill="#FFFFFF" width="20" height="7"/>
	<rect x="126" y="201" fill="#FFFFFF" width="20" height="7"/>
	<rect x="126" y="179" fill="#FFFFFF" width="20" height="10"/>
	<rect x="126" y="190" fill="#FFFFFF" width="20" height="10"/>
	<rect x="126" y="144" fill="#FFFFFF" width="20" height="7"/>
	<rect x="126" y="152" fill="#FFFFFF" width="20" height="7"/>
	<rect x="126" y="112" fill="#FFFFFF" width="20" height="7"/>
	<rect x="126" y="136" fill="#FFFFFF" width="20" height="7"/>
	<rect x="126" y="104" fill="#FFFFFF" width="20" height="7"/>
	<rect x="126" y="128" fill="#FFFFFF" width="20" height="7"/>
	<rect x="126" y="120" fill="#FFFFFF" width="20" height="7"/>
	<rect x="126" y="273" fill="#FFFFFF" width="20" height="7"/>
	<rect x="126" y="265" fill="#FFFFFF" width="20" height="7"/>
	<rect x="126" y="209" fill="#FFFFFF" width="20" height="7"/>
	<rect x="126" y="281" fill="#FFFFFF" width="20" height="7"/>
	<rect x="126" y="289" fill="#FFFFFF" width="20" height="7"/>
	<rect x="126" y="257" fill="#FFFFFF" width="20" height="7"/>
	<rect x="126" y="96" fill="#FFFFFF" width="20" height="7"/>
	<rect x="126" y="249" fill="#FFFFFF" width="20" height="7"/>
	<rect x="126" y="217" fill="#FFFFFF" width="20" height="7"/>
	<rect x="126" y="225" fill="#FFFFFF" width="20" height="7"/>
	<rect x="126" y="241" fill="#FFFFFF" width="20" height="7"/>
	<rect x="126" y="233" fill="#FFFFFF" width="20" height="7"/>
	<rect x="105" y="297" fill="#FFFFFF" width="20" height="7"/>
	<rect x="105" y="345" fill="#FFFFFF" width="20" height="7"/>
	<rect x="105" y="329" fill="#FFFFFF" width="20" height="7"/>
	<rect x="105" y="64" fill="#FFFFFF" width="20" height="7"/>
	<rect x="105" y="321" fill="#FFFFFF" width="20" height="7"/>
	<rect x="105" y="337" fill="#FFFFFF" width="20" height="7"/>
	<rect x="105" y="281" fill="#FFFFFF" width="20" height="7"/>
	<rect x="105" y="289" fill="#FFFFFF" width="20" height="7"/>
	<rect x="105" y="305" fill="#FFFFFF" width="20" height="7"/>
	<rect x="126" y="297" fill="#FFFFFF" width="20" height="7"/>
	<rect x="105" y="313" fill="#FFFFFF" width="20" height="7"/>
	<rect x="126" y="72" fill="#FFFFFF" width="20" height="7"/>
	<rect x="126" y="64" fill="#FFFFFF" width="20" height="7"/>
	<rect x="126" y="48" fill="#FFFFFF" width="20" height="7"/>
	<rect x="126" y="56" fill="#FFFFFF" width="20" height="7"/>
	<rect x="126" y="88" fill="#FFFFFF" width="20" height="7"/>
	<rect x="126" y="80" fill="#FFFFFF" width="20" height="7"/>
	<rect x="126" y="24" fill="#FFFFFF" width="20" height="7"/>
	<rect x="126" y="40" fill="#FFFFFF" width="20" height="7"/>
	<rect x="126" y="16" fill="#FFFFFF" width="20" height="7"/>
	<rect x="126" y="8" fill="#FFFFFF" width="20" height="7"/>
	<rect x="126" y="353" fill="#FFFFFF" width="20" height="7"/>
	<rect x="126" y="32" fill="#FFFFFF" width="20" height="7"/>
	<rect x="126" y="337" fill="#FFFFFF" width="20" height="7"/>
	<rect x="147" y="209" fill="#FFFFFF" width="20" height="7"/>
	<rect x="147" y="217" fill="#FFFFFF" width="20" height="7"/>
	<rect x="147" y="201" fill="#FFFFFF" width="20" height="7"/>
	<rect x="147" y="225" fill="#FFFFFF" width="20" height="7"/>
	<rect x="147" y="233" fill="#FFFFFF" width="20" height="7"/>
	<rect x="147" y="179" fill="#FFFFFF" width="20" height="10"/>
	<rect x="147" y="160" fill="#FFFFFF" width="20" height="7"/>
	<rect x="147" y="190" fill="#FFFFFF" width="20" height="10"/>
	<rect x="147" y="152" fill="#FFFFFF" width="20" height="7"/>
	<rect x="147" y="168" fill="#FFFFFF" width="20" height="10"/>
	<rect x="147" y="144" fill="#FFFFFF" width="20" height="7"/>
	<rect x="126" y="305" fill="#FFFFFF" width="20" height="7"/>
	<rect x="147" y="297" fill="#FFFFFF" width="20" height="7"/>
	<rect x="147" y="305" fill="#FFFFFF" width="20" height="7"/>
	<rect x="147" y="313" fill="#FFFFFF" width="20" height="7"/>
	<rect x="147" y="249" fill="#FFFFFF" width="20" height="7"/>
	<rect x="147" y="321" fill="#FFFFFF" width="20" height="7"/>
	<rect x="147" y="329" fill="#FFFFFF" width="20" height="7"/>
	<rect x="147" y="289" fill="#FFFFFF" width="20" height="7"/>
	<rect x="147" y="257" fill="#FFFFFF" width="20" height="7"/>
	<rect x="147" y="265" fill="#FFFFFF" width="20" height="7"/>
	<rect x="147" y="281" fill="#FFFFFF" width="20" height="7"/>
	<rect x="147" y="273" fill="#FFFFFF" width="20" height="7"/>
	<rect x="147" y="241" fill="#FFFFFF" width="20" height="7"/>
	<rect x="147" y="32" fill="#FFFFFF" width="20" height="7"/>
	<rect x="147" y="353" fill="#FFFFFF" width="20" height="7"/>
	<rect x="147" y="24" fill="#FFFFFF" width="20" height="7"/>
	<rect x="147" y="16" fill="#FFFFFF" width="20" height="7"/>
	<rect x="126" fill="#FFFFFF" width="20" height="7"/>
	<rect x="147" y="8" fill="#FFFFFF" width="20" height="7"/>
	<rect x="126" y="313" fill="#FFFFFF" width="20" height="7"/>
	<rect x="126" y="321" fill="#FFFFFF" width="20" height="7"/>
	<rect x="126" y="329" fill="#FFFFFF" width="20" height="7"/>
	<rect x="126" y="345" fill="#FFFFFF" width="20" height="7"/>
	<rect x="147" y="345" fill="#FFFFFF" width="20" height="7"/>
	<rect x="147" y="48" fill="#FFFFFF" width="20" height="7"/>
	<rect x="147" y="104" fill="#FFFFFF" width="20" height="7"/>
	<rect x="147" y="112" fill="#FFFFFF" width="20" height="7"/>
	<rect x="147" y="88" fill="#FFFFFF" width="20" height="7"/>
	<rect x="147" y="128" fill="#FFFFFF" width="20" height="7"/>
	<rect x="147" y="120" fill="#FFFFFF" width="20" height="7"/>
	<rect x="147" y="56" fill="#FFFFFF" width="20" height="7"/>
	<rect x="147" y="40" fill="#FFFFFF" width="20" height="7"/>
	<rect x="147" y="136" fill="#FFFFFF" width="20" height="7"/>
	<rect x="147" y="80" fill="#FFFFFF" width="20" height="7"/>
	<rect x="147" y="64" fill="#FFFFFF" width="20" height="7"/>
	<rect x="147" y="72" fill="#FFFFFF" width="20" height="7"/>
</g>
</svg>
